<mxfile host="app.diagrams.net" modified="2024-02-24T15:24:53.121Z" agent="Mozilla/5.0 (Windows NT 10.0; Win64; x64) AppleWebKit/537.36 (KHTML, like Gecko) Chrome/121.0.0.0 Safari/537.36" etag="KYoysYt0sil_sAf0uOxx" version="23.1.6" type="github">
  <diagram name="PÃ¡gina-1" id="W2Vk-HDnspeEn5l7Epgx">
    <mxGraphModel dx="5560" dy="2280" grid="1" gridSize="10" guides="1" tooltips="1" connect="1" arrows="1" fold="1" page="0" pageScale="1" pageWidth="583" pageHeight="827" math="0" shadow="0">
      <root>
        <mxCell id="0" />
        <mxCell id="1" parent="0" />
        <mxCell id="N2iw2MqOz0xrNc7ruZkv-2" value="DefaultController" style="html=1;whiteSpace=wrap;" vertex="1" parent="1">
          <mxGeometry x="359" y="440" width="120" height="80" as="geometry" />
        </mxCell>
        <mxCell id="N2iw2MqOz0xrNc7ruZkv-45" value="" style="edgeStyle=orthogonalEdgeStyle;rounded=0;orthogonalLoop=1;jettySize=auto;html=1;" edge="1" parent="1" source="N2iw2MqOz0xrNc7ruZkv-4" target="N2iw2MqOz0xrNc7ruZkv-10">
          <mxGeometry relative="1" as="geometry" />
        </mxCell>
        <mxCell id="N2iw2MqOz0xrNc7ruZkv-4" value="DefaultFormRequest" style="html=1;whiteSpace=wrap;" vertex="1" parent="1">
          <mxGeometry x="360" y="240" width="120" height="80" as="geometry" />
        </mxCell>
        <mxCell id="N2iw2MqOz0xrNc7ruZkv-5" value="DefaultService" style="html=1;whiteSpace=wrap;" vertex="1" parent="1">
          <mxGeometry x="359" y="640" width="120" height="80" as="geometry" />
        </mxCell>
        <mxCell id="N2iw2MqOz0xrNc7ruZkv-6" value="DefaultDTO" style="html=1;whiteSpace=wrap;" vertex="1" parent="1">
          <mxGeometry x="599" y="440" width="120" height="80" as="geometry" />
        </mxCell>
        <mxCell id="N2iw2MqOz0xrNc7ruZkv-7" value="DefaultModel" style="html=1;whiteSpace=wrap;" vertex="1" parent="1">
          <mxGeometry x="121" y="640" width="120" height="80" as="geometry" />
        </mxCell>
        <mxCell id="N2iw2MqOz0xrNc7ruZkv-8" value="DefaultAction" style="html=1;whiteSpace=wrap;" vertex="1" parent="1">
          <mxGeometry x="119" y="840" width="120" height="80" as="geometry" />
        </mxCell>
        <mxCell id="N2iw2MqOz0xrNc7ruZkv-9" value="Helpers" style="html=1;whiteSpace=wrap;" vertex="1" parent="1">
          <mxGeometry x="600" y="840" width="120" height="80" as="geometry" />
        </mxCell>
        <mxCell id="N2iw2MqOz0xrNc7ruZkv-10" value="CustomRules" style="html=1;whiteSpace=wrap;" vertex="1" parent="1">
          <mxGeometry x="121" y="240" width="120" height="80" as="geometry" />
        </mxCell>
        <mxCell id="N2iw2MqOz0xrNc7ruZkv-11" style="edgeStyle=orthogonalEdgeStyle;rounded=0;orthogonalLoop=1;jettySize=auto;html=1;exitX=0.5;exitY=1;exitDx=0;exitDy=0;" edge="1" parent="1" source="N2iw2MqOz0xrNc7ruZkv-2" target="N2iw2MqOz0xrNc7ruZkv-2">
          <mxGeometry relative="1" as="geometry" />
        </mxCell>
        <mxCell id="N2iw2MqOz0xrNc7ruZkv-12" value="" style="endArrow=open;endFill=1;endSize=12;html=1;rounded=0;exitX=0.5;exitY=1;exitDx=0;exitDy=0;entryX=0.5;entryY=0;entryDx=0;entryDy=0;" edge="1" parent="1" source="N2iw2MqOz0xrNc7ruZkv-4" target="N2iw2MqOz0xrNc7ruZkv-2">
          <mxGeometry width="160" relative="1" as="geometry">
            <mxPoint x="410" y="121" as="sourcePoint" />
            <mxPoint x="420" y="401" as="targetPoint" />
          </mxGeometry>
        </mxCell>
        <mxCell id="N2iw2MqOz0xrNc7ruZkv-14" value="" style="endArrow=open;endFill=1;endSize=12;html=1;rounded=0;exitX=0.5;exitY=1;exitDx=0;exitDy=0;entryX=0.5;entryY=0;entryDx=0;entryDy=0;" edge="1" parent="1" source="N2iw2MqOz0xrNc7ruZkv-2" target="N2iw2MqOz0xrNc7ruZkv-5">
          <mxGeometry width="160" relative="1" as="geometry">
            <mxPoint x="190" y="552" as="sourcePoint" />
            <mxPoint x="350" y="552" as="targetPoint" />
          </mxGeometry>
        </mxCell>
        <mxCell id="N2iw2MqOz0xrNc7ruZkv-25" value="Inicio" style="ellipse;whiteSpace=wrap;html=1;" vertex="1" parent="1">
          <mxGeometry x="375" y="80" width="90" height="80" as="geometry" />
        </mxCell>
        <mxCell id="N2iw2MqOz0xrNc7ruZkv-26" value="" style="endArrow=open;endFill=1;endSize=12;html=1;rounded=0;exitX=0.5;exitY=1;exitDx=0;exitDy=0;entryX=0.5;entryY=0;entryDx=0;entryDy=0;" edge="1" parent="1" source="N2iw2MqOz0xrNc7ruZkv-25" target="N2iw2MqOz0xrNc7ruZkv-4">
          <mxGeometry width="160" relative="1" as="geometry">
            <mxPoint x="210" y="263" as="sourcePoint" />
            <mxPoint x="370" y="263" as="targetPoint" />
          </mxGeometry>
        </mxCell>
        <mxCell id="N2iw2MqOz0xrNc7ruZkv-27" value="Exceptions" style="html=1;whiteSpace=wrap;" vertex="1" parent="1">
          <mxGeometry x="-120" y="440" width="120" height="80" as="geometry" />
        </mxCell>
        <mxCell id="N2iw2MqOz0xrNc7ruZkv-32" value="Use" style="endArrow=classic;endSize=12;dashed=1;html=1;rounded=0;entryX=1;entryY=0;entryDx=0;entryDy=0;endFill=1;exitX=0;exitY=1;exitDx=0;exitDy=0;" edge="1" parent="1" source="N2iw2MqOz0xrNc7ruZkv-10" target="N2iw2MqOz0xrNc7ruZkv-27">
          <mxGeometry width="160" relative="1" as="geometry">
            <mxPoint x="111" y="267" as="sourcePoint" />
            <mxPoint x="281" y="527" as="targetPoint" />
          </mxGeometry>
        </mxCell>
        <mxCell id="N2iw2MqOz0xrNc7ruZkv-33" value="Use" style="endArrow=classic;endSize=12;dashed=1;html=1;rounded=0;exitX=0;exitY=0.5;exitDx=0;exitDy=0;entryX=1;entryY=0.5;entryDx=0;entryDy=0;endFill=1;" edge="1" parent="1" source="N2iw2MqOz0xrNc7ruZkv-2" target="N2iw2MqOz0xrNc7ruZkv-27">
          <mxGeometry width="160" relative="1" as="geometry">
            <mxPoint x="189" y="369" as="sourcePoint" />
            <mxPoint x="109" y="450" as="targetPoint" />
          </mxGeometry>
        </mxCell>
        <mxCell id="N2iw2MqOz0xrNc7ruZkv-34" value="Use" style="endArrow=classic;endSize=12;dashed=1;html=1;rounded=0;exitX=0;exitY=0;exitDx=0;exitDy=0;entryX=1;entryY=1;entryDx=0;entryDy=0;endFill=1;" edge="1" parent="1" source="N2iw2MqOz0xrNc7ruZkv-5" target="N2iw2MqOz0xrNc7ruZkv-27">
          <mxGeometry width="160" relative="1" as="geometry">
            <mxPoint x="188" y="490" as="sourcePoint" />
            <mxPoint x="109" y="490" as="targetPoint" />
          </mxGeometry>
        </mxCell>
        <mxCell id="N2iw2MqOz0xrNc7ruZkv-35" value="Use" style="endArrow=classicThin;endSize=12;dashed=1;html=1;rounded=0;entryX=0.5;entryY=1;entryDx=0;entryDy=0;exitX=0;exitY=0;exitDx=0;exitDy=0;endFill=1;" edge="1" parent="1" source="N2iw2MqOz0xrNc7ruZkv-8" target="N2iw2MqOz0xrNc7ruZkv-27">
          <mxGeometry width="160" relative="1" as="geometry">
            <mxPoint x="111" y="759" as="sourcePoint" />
            <mxPoint x="161" y="530" as="targetPoint" />
          </mxGeometry>
        </mxCell>
        <mxCell id="N2iw2MqOz0xrNc7ruZkv-38" value="Inject" style="endArrow=classic;endSize=12;dashed=1;html=1;rounded=0;exitX=1;exitY=0.5;exitDx=0;exitDy=0;entryX=0;entryY=0.5;entryDx=0;entryDy=0;endFill=1;" edge="1" parent="1" source="N2iw2MqOz0xrNc7ruZkv-7" target="N2iw2MqOz0xrNc7ruZkv-5">
          <mxGeometry width="160" relative="1" as="geometry">
            <mxPoint x="-40" y="660" as="sourcePoint" />
            <mxPoint x="120" y="660" as="targetPoint" />
          </mxGeometry>
        </mxCell>
        <mxCell id="N2iw2MqOz0xrNc7ruZkv-39" value="Inject" style="endArrow=classic;endSize=12;dashed=1;html=1;rounded=0;exitX=0.5;exitY=1;exitDx=0;exitDy=0;entryX=0.5;entryY=0;entryDx=0;entryDy=0;endFill=1;" edge="1" parent="1" source="N2iw2MqOz0xrNc7ruZkv-7" target="N2iw2MqOz0xrNc7ruZkv-8">
          <mxGeometry width="160" relative="1" as="geometry">
            <mxPoint x="240" y="690" as="sourcePoint" />
            <mxPoint x="327" y="690" as="targetPoint" />
          </mxGeometry>
        </mxCell>
        <mxCell id="N2iw2MqOz0xrNc7ruZkv-40" value="Use" style="endArrow=classic;endSize=12;dashed=1;html=1;rounded=0;exitX=0;exitY=0.5;exitDx=0;exitDy=0;endFill=1;" edge="1" parent="1" source="N2iw2MqOz0xrNc7ruZkv-4" target="N2iw2MqOz0xrNc7ruZkv-10">
          <mxGeometry width="160" relative="1" as="geometry">
            <mxPoint x="276" y="330" as="sourcePoint" />
            <mxPoint x="30" y="411" as="targetPoint" />
          </mxGeometry>
        </mxCell>
        <mxCell id="N2iw2MqOz0xrNc7ruZkv-41" value="Use" style="endArrow=classic;endSize=12;dashed=1;html=1;rounded=0;exitX=0.5;exitY=1;exitDx=0;exitDy=0;endFill=1;" edge="1" parent="1" source="N2iw2MqOz0xrNc7ruZkv-6" target="N2iw2MqOz0xrNc7ruZkv-9">
          <mxGeometry width="160" relative="1" as="geometry">
            <mxPoint x="458" y="332" as="sourcePoint" />
            <mxPoint x="611" y="332" as="targetPoint" />
          </mxGeometry>
        </mxCell>
        <mxCell id="N2iw2MqOz0xrNc7ruZkv-42" value="Use" style="endArrow=classic;endSize=12;dashed=1;html=1;rounded=0;exitX=1;exitY=0.5;exitDx=0;exitDy=0;endFill=1;entryX=0;entryY=0;entryDx=0;entryDy=0;" edge="1" parent="1" source="N2iw2MqOz0xrNc7ruZkv-5" target="N2iw2MqOz0xrNc7ruZkv-9">
          <mxGeometry width="160" relative="1" as="geometry">
            <mxPoint x="628" y="571" as="sourcePoint" />
            <mxPoint x="628" y="730" as="targetPoint" />
          </mxGeometry>
        </mxCell>
        <mxCell id="N2iw2MqOz0xrNc7ruZkv-43" value="Use" style="endArrow=classic;endSize=12;dashed=1;html=1;rounded=0;exitX=1;exitY=0.5;exitDx=0;exitDy=0;endFill=1;entryX=0;entryY=0.5;entryDx=0;entryDy=0;" edge="1" parent="1" source="N2iw2MqOz0xrNc7ruZkv-8" target="N2iw2MqOz0xrNc7ruZkv-9">
          <mxGeometry width="160" relative="1" as="geometry">
            <mxPoint x="374" y="730" as="sourcePoint" />
            <mxPoint x="527" y="810" as="targetPoint" />
          </mxGeometry>
        </mxCell>
        <mxCell id="N2iw2MqOz0xrNc7ruZkv-44" value="Use" style="endArrow=classic;endSize=12;dashed=1;html=1;rounded=0;exitX=1;exitY=0.5;exitDx=0;exitDy=0;endFill=1;entryX=0;entryY=0.5;entryDx=0;entryDy=0;" edge="1" parent="1" source="N2iw2MqOz0xrNc7ruZkv-2" target="N2iw2MqOz0xrNc7ruZkv-6">
          <mxGeometry width="160" relative="1" as="geometry">
            <mxPoint x="471" y="332" as="sourcePoint" />
            <mxPoint x="569" y="332" as="targetPoint" />
          </mxGeometry>
        </mxCell>
        <mxCell id="N2iw2MqOz0xrNc7ruZkv-47" value="DefaultEvent" style="html=1;whiteSpace=wrap;" vertex="1" parent="1">
          <mxGeometry x="359" y="1040" width="120" height="80" as="geometry" />
        </mxCell>
        <mxCell id="N2iw2MqOz0xrNc7ruZkv-49" value="DefaultJob" style="html=1;whiteSpace=wrap;" vertex="1" parent="1">
          <mxGeometry x="119" y="1040" width="120" height="80" as="geometry" />
        </mxCell>
        <mxCell id="N2iw2MqOz0xrNc7ruZkv-50" value="DefaultListener" style="html=1;whiteSpace=wrap;" vertex="1" parent="1">
          <mxGeometry x="359" y="1240" width="120" height="80" as="geometry" />
        </mxCell>
        <mxCell id="N2iw2MqOz0xrNc7ruZkv-53" value="Use" style="endArrow=classic;endSize=12;dashed=1;html=1;rounded=0;exitX=0;exitY=1;exitDx=0;exitDy=0;endFill=1;entryX=1;entryY=0;entryDx=0;entryDy=0;" edge="1" parent="1" source="N2iw2MqOz0xrNc7ruZkv-5" target="N2iw2MqOz0xrNc7ruZkv-8">
          <mxGeometry width="160" relative="1" as="geometry">
            <mxPoint x="251" y="850" as="sourcePoint" />
            <mxPoint x="530" y="810" as="targetPoint" />
          </mxGeometry>
        </mxCell>
        <mxCell id="N2iw2MqOz0xrNc7ruZkv-54" value="Use" style="endArrow=classic;endSize=12;dashed=1;html=1;rounded=0;endFill=1;entryX=0.5;entryY=0;entryDx=0;entryDy=0;exitX=0.5;exitY=1;exitDx=0;exitDy=0;" edge="1" parent="1" source="N2iw2MqOz0xrNc7ruZkv-5" target="N2iw2MqOz0xrNc7ruZkv-47">
          <mxGeometry width="160" relative="1" as="geometry">
            <mxPoint x="480" y="483" as="sourcePoint" />
            <mxPoint x="568" y="531" as="targetPoint" />
          </mxGeometry>
        </mxCell>
        <mxCell id="N2iw2MqOz0xrNc7ruZkv-55" value="Use" style="endArrow=classic;endSize=12;dashed=1;html=1;rounded=0;endFill=1;exitX=0.5;exitY=1;exitDx=0;exitDy=0;" edge="1" parent="1" source="N2iw2MqOz0xrNc7ruZkv-47" target="N2iw2MqOz0xrNc7ruZkv-50">
          <mxGeometry width="160" relative="1" as="geometry">
            <mxPoint x="558" y="1080" as="sourcePoint" />
            <mxPoint x="488" y="1140" as="targetPoint" />
          </mxGeometry>
        </mxCell>
        <mxCell id="N2iw2MqOz0xrNc7ruZkv-56" value="Dispatch" style="endArrow=classic;endSize=12;dashed=1;html=1;rounded=0;endFill=1;exitX=0;exitY=0.5;exitDx=0;exitDy=0;entryX=1;entryY=1;entryDx=0;entryDy=0;" edge="1" parent="1" source="N2iw2MqOz0xrNc7ruZkv-50" target="N2iw2MqOz0xrNc7ruZkv-49">
          <mxGeometry x="0.0011" width="160" relative="1" as="geometry">
            <mxPoint x="309" y="1370" as="sourcePoint" />
            <mxPoint x="209.00000000000023" y="1130" as="targetPoint" />
            <mxPoint as="offset" />
          </mxGeometry>
        </mxCell>
        <mxCell id="N2iw2MqOz0xrNc7ruZkv-57" value="Dispatch" style="endArrow=classic;endSize=12;dashed=1;html=1;rounded=0;endFill=1;entryX=1;entryY=0.114;entryDx=0;entryDy=0;exitX=0;exitY=1;exitDx=0;exitDy=0;entryPerimeter=0;" edge="1" parent="1" source="N2iw2MqOz0xrNc7ruZkv-5" target="N2iw2MqOz0xrNc7ruZkv-49">
          <mxGeometry width="160" relative="1" as="geometry">
            <mxPoint x="451" y="493" as="sourcePoint" />
            <mxPoint x="731" y="373" as="targetPoint" />
          </mxGeometry>
        </mxCell>
        <mxCell id="N2iw2MqOz0xrNc7ruZkv-59" value="Dispatch" style="endArrow=classic;endSize=12;dashed=1;html=1;rounded=0;endFill=1;exitX=0;exitY=0.5;exitDx=0;exitDy=0;entryX=1;entryY=0.5;entryDx=0;entryDy=0;" edge="1" parent="1" source="N2iw2MqOz0xrNc7ruZkv-47" target="N2iw2MqOz0xrNc7ruZkv-49">
          <mxGeometry width="160" relative="1" as="geometry">
            <mxPoint x="329" y="1250" as="sourcePoint" />
            <mxPoint x="184" y="1131" as="targetPoint" />
          </mxGeometry>
        </mxCell>
        <mxCell id="N2iw2MqOz0xrNc7ruZkv-61" value="Dispatch" style="endArrow=classic;endSize=12;dashed=1;html=1;rounded=0;endFill=1;exitX=0.5;exitY=1;exitDx=0;exitDy=0;entryX=0.5;entryY=0;entryDx=0;entryDy=0;" edge="1" parent="1" source="N2iw2MqOz0xrNc7ruZkv-8" target="N2iw2MqOz0xrNc7ruZkv-49">
          <mxGeometry width="160" relative="1" as="geometry">
            <mxPoint x="329" y="1053" as="sourcePoint" />
            <mxPoint x="249" y="1053" as="targetPoint" />
          </mxGeometry>
        </mxCell>
        <mxCell id="N2iw2MqOz0xrNc7ruZkv-62" value="Use" style="endArrow=classic;endSize=12;dashed=1;html=1;rounded=0;endFill=1;entryX=0;entryY=0;entryDx=0;entryDy=0;exitX=1;exitY=1;exitDx=0;exitDy=0;" edge="1" parent="1" source="N2iw2MqOz0xrNc7ruZkv-8" target="N2iw2MqOz0xrNc7ruZkv-47">
          <mxGeometry width="160" relative="1" as="geometry">
            <mxPoint x="388" y="770" as="sourcePoint" />
            <mxPoint x="389" y="1013" as="targetPoint" />
          </mxGeometry>
        </mxCell>
        <mxCell id="N2iw2MqOz0xrNc7ruZkv-63" value="DefaultNotification" style="html=1;whiteSpace=wrap;" vertex="1" parent="1">
          <mxGeometry x="119" y="1240" width="120" height="80" as="geometry" />
        </mxCell>
        <mxCell id="N2iw2MqOz0xrNc7ruZkv-64" value="Use" style="endArrow=classic;endSize=12;dashed=1;html=1;rounded=0;endFill=1;exitX=0;exitY=0.5;exitDx=0;exitDy=0;entryX=1;entryY=0.5;entryDx=0;entryDy=0;" edge="1" parent="1" source="N2iw2MqOz0xrNc7ruZkv-50" target="N2iw2MqOz0xrNc7ruZkv-63">
          <mxGeometry width="160" relative="1" as="geometry">
            <mxPoint x="429" y="1130" as="sourcePoint" />
            <mxPoint x="429" y="1250" as="targetPoint" />
          </mxGeometry>
        </mxCell>
        <mxCell id="N2iw2MqOz0xrNc7ruZkv-65" value="Dispatch" style="endArrow=classic;endSize=12;dashed=1;html=1;rounded=0;endFill=1;exitX=0.5;exitY=0;exitDx=0;exitDy=0;entryX=0.5;entryY=1;entryDx=0;entryDy=0;" edge="1" parent="1" source="N2iw2MqOz0xrNc7ruZkv-63" target="N2iw2MqOz0xrNc7ruZkv-49">
          <mxGeometry x="0.0011" width="160" relative="1" as="geometry">
            <mxPoint x="369" y="1290" as="sourcePoint" />
            <mxPoint x="249" y="1130" as="targetPoint" />
            <mxPoint as="offset" />
          </mxGeometry>
        </mxCell>
      </root>
    </mxGraphModel>
  </diagram>
</mxfile>
